<mxfile host="app.diagrams.net" modified="2021-05-18T08:09:42.758Z" agent="5.0 (Macintosh; Intel Mac OS X 10_15_7) AppleWebKit/537.36 (KHTML, like Gecko) Chrome/86.0.4240.193 Safari/537.36" etag="324IGhPX1TS7umQapq2N" version="14.6.13" type="github">
  <diagram id="DJlun6UOrsroAtEnx9gG" name="Page-1">
    <mxGraphModel dx="946" dy="536" grid="1" gridSize="10" guides="1" tooltips="1" connect="1" arrows="1" fold="1" page="1" pageScale="1" pageWidth="827" pageHeight="1169" math="0" shadow="0">
      <root>
        <mxCell id="0" />
        <mxCell id="1" parent="0" />
        <mxCell id="I19I14_d2ybFD91y2NM1-1" value="" style="rounded=1;whiteSpace=wrap;html=1;" vertex="1" parent="1">
          <mxGeometry x="100" y="90" width="220" height="270" as="geometry" />
        </mxCell>
        <mxCell id="I19I14_d2ybFD91y2NM1-2" value="broker-a&lt;br&gt;192.168.25.131&amp;nbsp;" style="text;html=1;strokeColor=none;fillColor=none;align=center;verticalAlign=middle;whiteSpace=wrap;rounded=0;" vertex="1" parent="1">
          <mxGeometry x="162" y="110" width="86" height="20" as="geometry" />
        </mxCell>
        <mxCell id="I19I14_d2ybFD91y2NM1-6" value="" style="rounded=1;whiteSpace=wrap;html=1;" vertex="1" parent="1">
          <mxGeometry x="121.25" y="160" width="177.5" height="170" as="geometry" />
        </mxCell>
        <mxCell id="I19I14_d2ybFD91y2NM1-4" value="messageQueue" style="rounded=1;whiteSpace=wrap;html=1;" vertex="1" parent="1">
          <mxGeometry x="156" y="220" width="108" height="30" as="geometry" />
        </mxCell>
        <mxCell id="I19I14_d2ybFD91y2NM1-5" value="messageQueue" style="rounded=1;whiteSpace=wrap;html=1;" vertex="1" parent="1">
          <mxGeometry x="156" y="270" width="108" height="30" as="geometry" />
        </mxCell>
        <mxCell id="I19I14_d2ybFD91y2NM1-7" value="myTopic" style="text;html=1;strokeColor=none;fillColor=none;align=center;verticalAlign=middle;whiteSpace=wrap;rounded=0;" vertex="1" parent="1">
          <mxGeometry x="191.25" y="180" width="40" height="20" as="geometry" />
        </mxCell>
        <mxCell id="I19I14_d2ybFD91y2NM1-8" value="" style="rounded=1;whiteSpace=wrap;html=1;" vertex="1" parent="1">
          <mxGeometry x="360" y="90" width="220" height="270" as="geometry" />
        </mxCell>
        <mxCell id="I19I14_d2ybFD91y2NM1-9" value="broker-b&lt;br&gt;192.168.25.132&amp;nbsp;" style="text;html=1;strokeColor=none;fillColor=none;align=center;verticalAlign=middle;whiteSpace=wrap;rounded=0;" vertex="1" parent="1">
          <mxGeometry x="427" y="110" width="86" height="20" as="geometry" />
        </mxCell>
        <mxCell id="I19I14_d2ybFD91y2NM1-10" value="" style="rounded=1;whiteSpace=wrap;html=1;" vertex="1" parent="1">
          <mxGeometry x="381.25" y="160" width="177.5" height="170" as="geometry" />
        </mxCell>
        <mxCell id="I19I14_d2ybFD91y2NM1-11" value="messageQueue" style="rounded=1;whiteSpace=wrap;html=1;" vertex="1" parent="1">
          <mxGeometry x="416" y="220" width="108" height="30" as="geometry" />
        </mxCell>
        <mxCell id="I19I14_d2ybFD91y2NM1-12" value="messageQueue" style="rounded=1;whiteSpace=wrap;html=1;" vertex="1" parent="1">
          <mxGeometry x="416" y="270" width="108" height="30" as="geometry" />
        </mxCell>
        <mxCell id="I19I14_d2ybFD91y2NM1-13" value="myTopic" style="text;html=1;strokeColor=none;fillColor=none;align=center;verticalAlign=middle;whiteSpace=wrap;rounded=0;" vertex="1" parent="1">
          <mxGeometry x="451.25" y="180" width="40" height="20" as="geometry" />
        </mxCell>
      </root>
    </mxGraphModel>
  </diagram>
</mxfile>
